<?xml version="1.0" encoding="UTF-8" standalone="no"?><!DOCTYPE svg PUBLIC "-//W3C//DTD SVG 1.1//EN" "http://www.w3.org/Graphics/SVG/1.1/DTD/svg11.dtd"><svg width="100%" height="100%" viewBox="0 0 224 312" version="1.1" xmlns="http://www.w3.org/2000/svg" xmlns:xlink="http://www.w3.org/1999/xlink" xml:space="preserve" style="fill-rule:evenodd;clip-rule:evenodd;stroke-linecap:round;"><g><path d="M212.616,301.703l-202.004,0l0,-291.596l202.004,0l0,291.596Zm-197.052,-286.644l0,281.692l192.1,0l0,-281.692l-192.1,0Z" style="fill:#131f67;"/><path d="M17.477,16.452l188.276,0l0,278.906l-188.276,0l0,-278.906Z" style="fill:none;stroke:#131f67;stroke-width:1px;"/><path d="M92.939,111.817c5.735,-3.366 10.954,-5.304 15.656,-5.816c8.95,-0.939 15.959,2.91 21.028,11.546c2.645,4.506 3.879,8.739 3.702,12.698c-0.177,3.959 -1.428,7.791 -3.751,11.496c3.637,-0.529 6.769,-0.256 9.396,0.818c2.627,1.074 5.308,3.746 8.043,8.015l6.279,9.877c1.786,2.807 3.277,4.8 4.474,5.979c2.017,2.029 4.011,2.924 5.982,2.685c0.011,0.019 0.007,0.012 0.012,0.021l0.001,0l1.257,2.142l-18.837,11.057c-1.34,0.675 -2.949,0.427 -4.34,0.046c0.515,-0.747 0.98,-1.533 1.319,-2.378c1.341,0.22 0.725,0.197 1.844,0.142l15.249,-8.951c-0.284,-0.07 -0.552,-0.191 -0.817,-0.311c-0.952,-0.468 -2.462,-1.578 -3.506,-2.589c-1.367,-1.346 -2.963,-3.479 -4.846,-6.439l-6.275,-9.869c-2.47,-3.857 -4.794,-6.172 -6.83,-7.004c-2.161,-0.884 -4.827,-1.117 -8.029,-0.652l-5.6,0.814l3.007,-4.794c2.089,-3.331 3.197,-6.727 3.353,-10.222c0.153,-3.413 -0.939,-7.159 -3.343,-11.256c-4.567,-7.78 -10.607,-11.096 -18.489,-10.269c-4.298,0.467 -9.176,2.279 -14.614,5.471l-19.666,11.544c-6.768,4.964 -8.841,12.686 -5.416,20.309l6.077,10.35c4.924,6.942 12.877,8.454 20.472,5.118l0,0l17.972,-10.549c8.147,-4.782 18.423,-2.186 24.441,8.066c6.017,10.251 4.467,22.404 -3.68,27.186l-16.498,9.764c-2.862,1.695 -5.094,2.797 -6.695,3.307c-2.717,0.896 -4.9,0.792 -6.55,-0.314c0,0 -1.622,1.08 -2.111,1.355c0.98,1.527 4.103,2.161 5.156,2.174c0.363,0.813 0.604,1.386 0.909,1.966c-1.565,0.919 -4.636,0.071 -5.582,-0.394c-0.952,-0.469 -2.462,-1.579 -3.506,-2.589c-1.297,-1.277 -2.352,-2.768 -3.39,-4.254l-0.012,-0.011l-38.063,-64.847l2.429,-1.426l0.007,0.019l3.493,6.05c0.372,-5.204 3.105,-9.975 7.688,-12.633l-0.001,-0.003l21.201,-12.445Z" style="fill:#16175a;fill-rule:nonzero;"/></g></svg>